<?xml version="1.0" encoding="UTF-8" standalone="no"?>
<!-- Created with Inkscape (http://www.inkscape.org/) -->

<svg
   width="210mm"
   height="210mm"
   viewBox="0 0 210 210"
   version="1.1"
   id="svg5"
   xml:space="preserve"
   inkscape:version="1.2.2 (732a01da63, 2022-12-09)"
   sodipodi:docname="drawing.svg"
   xmlns:inkscape="http://www.inkscape.org/namespaces/inkscape"
   xmlns:sodipodi="http://sodipodi.sourceforge.net/DTD/sodipodi-0.dtd"
   xmlns="http://www.w3.org/2000/svg"
   xmlns:svg="http://www.w3.org/2000/svg"><sodipodi:namedview
     id="namedview7"
     pagecolor="#ffffff"
     bordercolor="#000000"
     borderopacity="0.25"
     inkscape:showpageshadow="2"
     inkscape:pageopacity="0.0"
     inkscape:pagecheckerboard="0"
     inkscape:deskcolor="#d1d1d1"
     inkscape:document-units="mm"
     showgrid="false"
     showguides="true"
     inkscape:zoom="0.5946522"
     inkscape:cx="712.181"
     inkscape:cy="312.78788"
     inkscape:window-width="1920"
     inkscape:window-height="1009"
     inkscape:window-x="3832"
     inkscape:window-y="-8"
     inkscape:window-maximized="1"
     inkscape:current-layer="layer1" /><defs
     id="defs2" /><g
     inkscape:label="Layer 1"
     inkscape:groupmode="layer"
     id="layer1"><path
       id="path9809"
       style="fill:#808080;fill-opacity:1;stroke:#000000;stroke-width:0;stroke-linecap:round;stroke-linejoin:round;paint-order:stroke markers fill"
       d="m 143.15177,126.88943 c -8.88371,0 -16.03596,7.15231 -16.03596,16.03618 v 41.03727 c 0,8.8839 7.15225,16.03712 16.03596,16.03712 h 40.81228 C 192.84777,200 200,192.84678 200,183.96288 v -41.03727 c 0,-8.88387 -7.15223,-16.03618 -16.03595,-16.03618 z m 9.77924,17.51928 h 21.2538 c 4.62616,0 8.3504,3.72427 8.3504,8.35052 v 21.37005 c 0,4.62623 -3.72424,8.35146 -8.3504,8.35146 h -21.2538 c -4.62615,0 -8.35041,-3.72523 -8.35041,-8.35146 v -21.37005 c 0,-4.62625 3.72426,-8.35052 8.35041,-8.35052 z" /><rect
       style="fill:#b3b3b3;fill-opacity:1;stroke:#000000;stroke-width:0;stroke-linecap:round;stroke-linejoin:round;paint-order:stroke markers fill"
       id="rect4868"
       width="72.884987"
       height="73.109444"
       x="10.000001"
       y="126.88999"
       ry="16.035879" /><rect
       style="fill:#0199f6;fill-opacity:1;stroke:#000000;stroke-width:0;stroke-linecap:round;stroke-linejoin:round;paint-order:stroke markers fill"
       id="rect4959"
       width="72.68396"
       height="17.464285"
       x="127.31606"
       y="-113.73207"
       ry="8.7321424"
       transform="rotate(90)" /><rect
       style="fill:#0199f6;fill-opacity:1;stroke:#000000;stroke-width:0;stroke-linecap:round;stroke-linejoin:round;paint-order:stroke markers fill"
       id="rect4961"
       width="72.885605"
       height="17.464523"
       x="10.001308"
       y="96.268021"
       ry="8.7322617" /><path
       id="path4975"
       style="fill:#808080;fill-opacity:1;stroke:#000000;stroke-width:0;stroke-linecap:round;stroke-linejoin:round;paint-order:stroke markers fill"
       d="m 26.037365,10.000001 c -8.883718,0 -16.035965,7.1523 -16.035965,16.036186 v 41.037265 c 0,8.883886 7.152247,16.037122 16.035965,16.037122 h 40.812278 c 8.883719,0 16.035966,-7.153236 16.035966,-16.037122 V 26.036187 c 0,-8.883886 -7.152247,-16.036186 -16.035966,-16.036186 z m 9.779236,17.519268 h 21.253805 c 4.626154,0 8.350409,3.724283 8.350409,8.350526 v 21.370048 c 0,4.626242 -3.724255,8.35146 -8.350409,8.35146 H 35.816601 c -4.626156,0 -8.350408,-3.725218 -8.350408,-8.35146 V 35.869795 c 0,-4.626243 3.724252,-8.350526 8.350408,-8.350526 z" /><ellipse
       style="fill:#b3b3b3;fill-opacity:1;stroke:#000000;stroke-width:0;stroke-linecap:round;stroke-linejoin:round;paint-order:stroke markers fill"
       id="path4979"
       cx="148.13344"
       cy="61.455135"
       rx="17.779119"
       ry="17.779366" /><path
       id="path9811"
       style="fill:#808080;fill-opacity:1;stroke:#000000;stroke-width:0;stroke-linecap:round;stroke-linejoin:round;paint-order:stroke markers fill"
       d="m 135.84761,10.000003 c -4.8376,0 -8.73192,3.895321 -8.73192,8.732984 0,4.837663 3.89432,8.73205 8.73192,8.73205 l 38.33708,0.05424 c 4.62615,0 8.35041,3.724295 8.35041,8.350525 l 9.1e-4,38.508727 c 0,4.83767 3.89433,8.732052 8.73194,8.732052 4.83759,0 8.73192,-3.894382 8.73192,-8.732052 v -48.34234 c 2e-5,-8.88385 -7.15223,-16.036186 -16.03595,-16.036186 z"
       sodipodi:nodetypes="csccccscccc" /><path
       id="path9825"
       style="fill:#0199f6;fill-opacity:1;stroke:#000000;stroke-width:0;stroke-linecap:round;stroke-linejoin:round;paint-order:stroke markers fill"
       d="m 191.26809,113.73254 c 4.83759,0 8.73191,-3.89533 8.73191,-8.73299 0,-4.83766 -3.89432,-8.732052 -8.73191,-8.732052 l -69.18605,-0.05424 c -4.62614,0 -8.35042,-3.724297 -8.35042,-8.350525 l 3.3e-4,-68.877162 c 0,-4.837669 -3.89433,-8.73205 -8.73194,-8.73205 -4.8376,0 -8.731926,3.894381 -8.731926,8.73205 l -0.0012,78.710765 c 0,8.883854 7.152246,16.036204 16.035976,16.036204 z"
       sodipodi:nodetypes="csccccscccc" /></g></svg>
